<svg xmlns="http://www.w3.org/2000/svg" width="21" height="21" viewBox="0 0 21 21"><g><g><path fill="#005f7f" d="M1.084 9.076c3.259-1.028 6.061.375 6.09.39.138.07.306.051.425-.05l6.058-5.154a.383.383 0 0 0 .13-.354 3.6 3.6 0 0 1 .37-2.245l5.18 5.182c-1.005.547-2.209.368-2.223.366a.385.385 0 0 0-.352.13l-5.166 6.073a.385.385 0 0 0-.058.406c.015.032 1.331 3.034.396 6.106l-5.152-5.152zM.008 8.84a.385.385 0 0 0 .104.349l5.575 5.576L.48 19.974a.383.383 0 1 0 .543.543l5.208-5.208 5.592 5.592a.384.384 0 0 0 .628-.13c1.233-3.096.215-6.182-.118-7.038l4.882-5.739c.529.043 1.9.057 2.966-.788a.384.384 0 0 0 .032-.573L14.358.78a.398.398 0 0 0-.292-.112.386.386 0 0 0-.279.143C13.745.862 12.8 2.06 13 3.814L7.29 8.672c-.84-.366-3.757-1.421-7.047-.11a.384.384 0 0 0-.234.279z"/></g></g></svg>